<?xml version="1.0" encoding="utf-8"?>
<!-- Generator: Adobe Illustrator 24.1.0, SVG Export Plug-In . SVG Version: 6.00 Build 0)  -->
<svg version="1.1" id="Capa_1" xmlns="http://www.w3.org/2000/svg" xmlns:xlink="http://www.w3.org/1999/xlink" x="0px" y="0px"
	 viewBox="0 0 500 267" style="enable-background:new 0 0 500 267;" xml:space="preserve">
<style type="text/css">
	.st0{fill:#FFFFFF;}
	.st1{fill:#009CDA;}
	.st2{fill:#002E86;}
</style>
<rect x="0.6" class="st0" width="499.4" height="266.51"/>
<rect x="74.56" y="16.5" class="st1" width="411.38" height="174.21"/>
<rect x="18.94" y="16.5" class="st2" width="174.21" height="174.21"/>
<g>
	<path class="st0" d="M37.5,146.98v-43.42h15.15v42.18c0,8.24,4.6,12.37,11.79,12.37c7.19,0,11.79-4.12,11.79-12.37v-42.18h15.15
		v43.42c0,17.06-11.98,26.07-26.94,26.07S37.5,164.04,37.5,146.98z"/>
	<path class="st0" d="M132.49,138.25c-1.63-0.38-3.16-0.48-4.6-0.48c-5.85,0-11.12,3.45-11.12,12.94v20.8H102.2v-47.64h14.09v6.42
		c2.49-5.37,8.53-6.9,12.37-6.9c1.44,0,2.88,0.19,3.83,0.48V138.25z"/>
	<path class="st0" d="M185.98,147.65c0,14.76-11.02,25.31-25.31,25.31c-14.19,0-25.31-10.54-25.31-25.31
		c0-14.76,11.12-25.21,25.31-25.21C174.96,122.44,185.98,132.89,185.98,147.65z M171.41,147.65c0-8.05-5.18-11.79-10.74-11.79
		c-5.46,0-10.74,3.74-10.74,11.79c0,7.96,5.27,11.89,10.74,11.89C166.24,159.53,171.41,155.7,171.41,147.65z"/>
</g>
<g>
	<path class="st2" d="M34.87,227.42c0-13.47,9.83-20.91,19.72-20.91c9.03,0,15.46,5.17,17.33,12.84l-3.24,1.14
		c-1.59-6.59-6.82-10.68-14.09-10.68c-8.24,0-16.08,6.08-16.08,17.61c0,11.48,7.84,17.56,16.08,17.56c7.56,0,12.73-4.55,14.38-10.85
		l3.13,1.14c-1.93,7.56-8.41,13.01-17.5,13.01C44.59,248.28,34.87,240.89,34.87,227.42z"/>
	<path class="st2" d="M107.71,239.87c-1.53,4.6-5.63,8.41-11.88,8.41c-7.16,0-13.18-5.28-13.18-14.38c0-8.52,5.8-14.21,12.56-14.21
		c8.01,0,12.61,5.68,12.67,13.69c0,0.45,0,0.8-0.06,1.25H86.12v0.23c0.06,6.25,4.38,10.34,9.72,10.34c4.89,0,7.73-2.84,8.86-6.42
		L107.71,239.87z M104.31,231.8c-0.11-5.06-3.35-9.03-9.03-9.03c-5.06,0-8.69,4.03-9.03,9.03H104.31z"/>
	<path class="st2" d="M124.02,247.54h-3.41v-27.1h3.3v4.32c1.48-2.9,4.66-5,8.81-5c6.36,0,9.6,4.55,9.6,10.11v17.67h-3.41v-17.1
		c0-4.26-2.1-7.61-7.33-7.61c-4.66,0-7.56,3.92-7.56,8.52V247.54z"/>
	<path class="st2" d="M162.03,220.44h7.05v3.07h-7.05v16.36c0,3.3,1.53,4.89,4.6,4.89c0.97,0,1.93-0.23,2.44-0.45v3.01
		c-0.45,0.23-1.7,0.51-3.35,0.51c-4.38,0-7.1-2.67-7.1-7.61V223.5h-5.74v-3.07h2.05c2.67,0,3.81-1.19,3.81-3.98v-4.6h3.3V220.44z"/>
	<path class="st2" d="M194.64,223.96c-0.62-0.17-1.48-0.28-2.39-0.28c-4.6,0-8.01,2.95-8.01,9.15v14.72h-3.41v-27.1h3.35v5.06
		c1.65-3.75,4.77-5.4,8.35-5.4c0.91,0,1.65,0.11,2.1,0.28V223.96z"/>
	<path class="st2" d="M203.05,234.02c0-8.52,5.85-14.26,13.47-14.26c7.56,0,13.47,5.74,13.47,14.26c0,8.47-5.91,14.26-13.47,14.26
		C208.96,248.28,203.05,242.48,203.05,234.02z M216.52,245.21c5.34,0,10-4.15,10-11.19c0-7.1-4.66-11.19-10-11.19
		c-5.34,0-10,4.09-10,11.19C206.52,241.06,211.18,245.21,216.52,245.21z"/>
</g>
<g>
	<path class="st2" d="M298.13,247.31v-34.89l-15.8,34.89h-3.41l-15.74-34.89v34.89h-3.64v-40.29h5.11l16.02,35.57l16.02-35.57h5.06
		v40.29H298.13z"/>
	<path class="st2" d="M340.34,239.64c-1.53,4.6-5.62,8.41-11.88,8.41c-7.16,0-13.18-5.28-13.18-14.38c0-8.52,5.8-14.21,12.56-14.21
		c8.01,0,12.61,5.68,12.67,13.69c0,0.45,0,0.8-0.06,1.25h-21.71v0.23c0.06,6.25,4.37,10.34,9.72,10.34c4.89,0,7.73-2.84,8.86-6.42
		L340.34,239.64z M336.93,231.57c-0.11-5.06-3.35-9.03-9.03-9.03c-5.06,0-8.69,4.03-9.03,9.03H336.93z M329.38,216.8h-2.78l5.06-7.9
		h4.43L329.38,216.8z"/>
	<path class="st2" d="M373.35,241.97c-1.19,2.78-4.2,6.08-9.49,6.08c-7.61,0-12.5-6.25-12.5-14.32c0-7.95,5-14.26,12.5-14.26
		c5.8,0,8.47,3.52,9.43,5.85v-19.03h3.41v35.85c0,2.9,0.23,4.89,0.28,5.17h-3.35c-0.11-0.68-0.28-2.33-0.28-4.26V241.97z
		 M364.15,244.98c5.63,0,9.2-4.89,9.2-11.25c0-6.42-3.58-11.19-9.15-11.19c-5.68,0-9.43,4.66-9.43,11.19
		C354.77,240.1,358.41,244.98,364.15,244.98z"/>
	<path class="st2" d="M393.24,206.12c1.59,0,2.84,1.19,2.84,2.84c0,1.65-1.25,2.84-2.84,2.84c-1.59,0-2.84-1.19-2.84-2.84
		C390.39,207.31,391.64,206.12,393.24,206.12z M391.53,247.31v-27.1h3.41v27.1H391.53z"/>
	<path class="st2" d="M411.25,233.79c0,6.88,4.43,11.19,9.89,11.19c5.23,0,7.9-3.64,8.81-6.65l3.01,1.25
		c-1.31,4.2-5.28,8.47-11.82,8.47c-7.67,0-13.3-5.97-13.3-14.26c0-8.35,5.68-14.32,13.3-14.32c6.48,0,10.34,3.98,11.59,8.52
		l-3.01,1.25c-0.91-3.18-3.35-6.7-8.58-6.7C415.74,222.54,411.25,226.8,411.25,233.79z"/>
	<path class="st2" d="M443.57,233.79c0-8.52,5.85-14.26,13.47-14.26c7.56,0,13.47,5.74,13.47,14.26c0,8.47-5.91,14.26-13.47,14.26
		C449.48,248.05,443.57,242.26,443.57,233.79z M457.04,244.98c5.34,0,10-4.15,10-11.19c0-7.1-4.66-11.19-10-11.19
		c-5.34,0-10,4.09-10,11.19C447.04,240.84,451.7,244.98,457.04,244.98z"/>
</g>
<g>
	<g>
		<path class="st0" d="M201.89,140.77c0-19,14.44-31.89,31.46-31.89c18.31,0,26.39,11.78,28.36,20.54l-12.81,4.04
			c-0.95-4.21-4.81-11.35-15.56-11.35c-8.17,0-17.36,5.84-17.36,18.65c0,11.43,8.42,18.05,17.53,18.05
			c10.57,0,14.78-7.05,15.99-11.43l12.98,3.7c-1.98,8.42-10.06,21.32-28.96,21.32C215.98,172.4,201.89,159.77,201.89,140.77z"/>
		<path class="st0" d="M306.66,158.82c-2.06,7.39-8.85,13.58-19.68,13.58c-11.77,0-22.26-8.42-22.26-22.78
			c0-13.75,10.23-22.52,21.32-22.52c13.24,0,21.4,8.17,21.4,21.92c0,1.81-0.17,3.78-0.26,4.04h-29.74c0.26,4.81,4.64,8.25,9.71,8.25
			c4.73,0,7.39-2.23,8.6-5.59L306.66,158.82z M294.8,144.64c-0.17-3.27-2.41-7.22-8.59-7.22c-5.5,0-8.25,4.04-8.51,7.22H294.8z"/>
		<path class="st0" d="M327.21,171.11h-13.06V128.4h12.63v4.9c2.32-4.04,7.56-6.02,11.95-6.02c10.74,0,15.56,7.65,15.56,17.02v26.82
			h-13.06v-24.58c0-4.21-2.23-7.39-6.96-7.39c-4.3,0-7.05,3.18-7.05,7.48V171.11z"/>
		<path class="st0" d="M379.21,128.4h8.34v11.43h-8.34v15.99c0,3.52,1.89,4.47,4.73,4.47c1.38,0,2.66-0.26,3.44-0.43v10.83
			c-0.52,0.26-2.66,1.2-6.79,1.2c-8.85,0-14.27-5.24-14.27-13.75v-18.31h-7.56V128.4h2.15c4.47,0,6.62-3.01,6.62-6.96v-5.5h11.69
			V128.4z"/>
		<path class="st0" d="M421.75,141.29c-1.46-0.34-2.84-0.43-4.13-0.43c-5.24,0-9.97,3.09-9.97,11.6v18.65h-13.06V128.4h12.63v5.76
			c2.23-4.81,7.65-6.19,11.09-6.19c1.29,0,2.58,0.17,3.44,0.43V141.29z"/>
		<path class="st0" d="M469.71,149.71c0,13.24-9.88,22.69-22.69,22.69c-12.72,0-22.69-9.45-22.69-22.69
			c0-13.24,9.97-22.6,22.69-22.6C459.83,127.11,469.71,136.48,469.71,149.71z M456.65,149.71c0-7.22-4.64-10.57-9.63-10.57
			c-4.9,0-9.63,3.35-9.63,10.57c0,7.13,4.73,10.66,9.63,10.66C452.01,160.37,456.65,156.93,456.65,149.71z"/>
	</g>
</g>
</svg>
